<?xml version="1.0" encoding="UTF-8" standalone="no"?>
<svg width="901px" height="830px" viewBox="0 0 901 830" version="1.1" xmlns="http://www.w3.org/2000/svg" xmlns:xlink="http://www.w3.org/1999/xlink" xmlns:sketch="http://www.bohemiancoding.com/sketch/ns">
    <!-- Generator: Sketch 3.2.2 (9983) - http://www.bohemiancoding.com/sketch -->
    <title>Shape</title>
    <desc>Created with Sketch.</desc>
    <defs></defs>
    <g id="Page-1" stroke="none" stroke-width="1" fill="none" fill-rule="evenodd" sketch:type="MSPage">
        <path d="M760.4,705.5 C784.5,816.1 664.4,840.1 611.5,825.7 C558.6,811.3 450.7,808.9 450.7,808.9 C450.7,808.9 342.5,811.3 289.6,825.7 C236.7,840.2 116.5,816.1 140.5,705.5 C164.5,594.9 270.3,599.7 299.3,450.6 C328.2,301.5 450.8,311.1 450.8,311.1 C450.8,311.1 573.1,301.5 602,450.6 C630.8,599.7 736.4,594.9 760.4,705.5 L760.4,705.5 Z M561.7,301.4 C626.8,320.2 698.7,268.8 722.4,186.6 C746.1,104.5 712.6,22.7 647.5,3.9 C582.4,-14.9 510.5,36.5 486.8,118.7 C463.1,200.8 496.6,282.6 561.7,301.4 L561.7,301.4 Z M831.5,271.5 C768.8,245.9 691.8,289.3 659.5,368.5 C627.2,447.7 651.8,532.6 714.5,558.1 C777.2,583.6 854.2,540.3 886.5,461.1 C918.8,381.9 894.2,297.1 831.5,271.5 L831.5,271.5 Z M339.2,301.4 C404.3,282.6 437.8,200.8 414.1,118.7 C390.4,36.6 318.4,-14.8 253.4,4 C188.4,22.8 154.8,104.6 178.5,186.7 C202.2,268.8 274.1,320.2 339.2,301.4 L339.2,301.4 Z M186.5,558.1 C249.2,532.5 273.8,447.6 241.5,368.5 C209.2,289.4 132.2,245.9 69.5,271.5 C6.8,297.1 -17.8,382 14.5,461.1 C46.8,540.3 123.8,583.7 186.5,558.1 L186.5,558.1 Z" id="Shape" fill="#000000" sketch:type="MSShapeGroup"></path>
    </g>
</svg>