<?xml version="1.0" encoding="utf-8"?>
<!-- Generator: Adobe Illustrator 18.0.0, SVG Export Plug-In . SVG Version: 6.00 Build 0)  -->
<!DOCTYPE svg PUBLIC "-//W3C//DTD SVG 1.1//EN" "http://www.w3.org/Graphics/SVG/1.1/DTD/svg11.dtd">
<svg version="1.1" id="Layer_1" xmlns="http://www.w3.org/2000/svg" xmlns:xlink="http://www.w3.org/1999/xlink" x="0px" y="0px"
	 viewBox="0 0 1000 1000" enable-background="new 0 0 1000 1000" xml:space="preserve">
<path d="M810.4,767.5c24.1,110.6-96,134.6-148.9,120.2c-52.9-14.4-160.8-16.8-160.8-16.8s-108.2,2.4-161.1,16.8
	c-52.9,14.5-173.1-9.6-149.1-120.2s129.8-105.8,158.8-254.9c28.9-149.1,151.5-139.5,151.5-139.5s122.3-9.6,151.2,139.5
	C680.8,661.7,786.4,656.9,810.4,767.5z M611.7,363.4c65.1,18.8,137-32.6,160.7-114.8c23.7-82.1-9.8-163.9-74.9-182.7
	s-137,32.6-160.7,114.8C513.1,262.8,546.6,344.6,611.7,363.4z M881.5,333.5c-62.7-25.6-139.7,17.8-172,97s-7.7,164.1,55,189.6
	s139.7-17.8,172-97S944.2,359.1,881.5,333.5z M389.2,363.4c65.1-18.8,98.6-100.6,74.9-182.7S368.4,47.2,303.4,66
	s-98.6,100.6-74.9,182.7C252.2,330.8,324.1,382.2,389.2,363.4z M236.5,620.1c62.7-25.6,87.3-110.5,55-189.6s-109.3-122.6-172-97
	S32.2,444,64.5,523.1C96.8,602.3,173.8,645.7,236.5,620.1z"/>
</svg>
