<svg width="100" height="84" viewBox="0 0 100 84" xmlns="http://www.w3.org/2000/svg"><title>fronty</title><g fill="#000" fill-rule="evenodd"><path d="M98.23 40.66c-3.6-6.396-9.202-10.86-14.027-13.07.59-1.47.884-3.053.85-4.662-.07-3.204-1.404-6.197-3.76-8.427-1.91-1.806-4.318-2.946-6.91-3.297C72.44 6.863 68.05 3.99 63.028 3.99c-.093 0-.185 0-.277.003-1.03.022-2.04.164-3.014.425C57.37 1.593 53.8-.06 49.936.002c-3.865-.064-7.435 1.59-9.802 4.416-.975-.26-1.983-.403-3.014-.425-5.138-.11-9.65 2.792-11.628 7.21-2.593.35-5 1.49-6.91 3.298-2.356 2.23-3.692 5.223-3.76 8.428-.034 1.61.26 3.19.85 4.662-4.826 2.21-10.428 6.675-14.028 13.07-2.193 3.898-2.192 8.842.003 12.595 1.66 2.84 4.318 4.47 7.29 4.47 3.908 0 9.285-2.7 14.577-14.092 1.227 5.95 2.724 11.49 4.426 16.358C33.445 75.724 40.846 83.7 49.937 83.7c9.09 0 16.488-7.973 21.993-23.698 1.29-3.687 2.942-9.156 4.43-16.37 5.292 11.39 10.67 14.092 14.576 14.092 2.974 0 5.63-1.628 7.293-4.468 2.193-3.753 2.194-8.697 0-12.595zm-84.184 7.51c-1.83 2.333-3.692 3.67-5.107 3.67-1.078 0-1.8-.845-2.214-1.555-.92-1.572-1.297-4.352.046-6.74 3.957-7.03 10.5-10.74 13.934-11.52l1.067-.24c-2.368 7.354-4.968 12.866-7.727 16.385zM75.4 29.7h-.112c-.94 0-2.616.556-2.935 2.643l-.066.452c-1.72 11.84-4.163 20.274-5.91 25.263-3.155 9.014-8.568 19.758-16.44 19.758-7.874 0-13.288-10.75-16.443-19.768-1.746-4.99-4.19-13.424-5.906-25.258-.028-.196-.05-.347-.066-.448-.32-2.087-1.994-2.643-2.934-2.643h-.113l-2.22-2.498c-1.033-1.16-1.583-2.633-1.55-4.15.07-3.353 2.992-6.082 6.512-6.082h.137l2.58.1.555-2.357c.66-2.804 3.333-4.84 6.356-4.84.05 0 .1 0 .15.002 1.036.022 2.024.27 2.936.735l2.602 1.327 1.346-2.592c1.13-2.178 3.434-3.516 5.995-3.46H50c2.547-.056 4.865 1.282 5.995 3.46l1.346 2.592 2.603-1.327c.912-.466 1.9-.713 2.936-.735l.15-.002c3.023 0 5.696 2.036 6.356 4.84l.555 2.357 2.42-.09.148-.01h.15c3.52 0 6.442 2.73 6.513 6.083.034 1.516-.517 2.99-1.55 4.15l-2.22 2.496zm17.75 20.586c-.415.71-1.136 1.555-2.213 1.555-1.415 0-3.277-1.337-5.107-3.67-2.76-3.52-5.36-9.03-7.727-16.386l1.066.242c3.432.778 9.976 4.488 13.933 11.52 1.344 2.388.967 5.168.047 6.74z"/><path d="M15.632 30.685l3.165-.143 2.6-.357 3.134-.176 3.098-.13h2.39l3.096.193 3.73.324 3.26.535 3.63.65 3.316.528 1.883.323 1.4.05 2.4-.34 2.727-.364 5.246-.888 4.08-.5 2.275-.177 3.232.015 3.61.082 3.947.1 3.998.068 3.952.235-.613 4.635-1.19 1.113-.368.675-.308 1.655-.614 2.324-.532 1.79-.58 1.964-.928 1.672-1.115 2.32-.35.32-1.06 1.123-1.12 1.253-.95.466-1.647.764-1.978.544-1.53.325-1.71.142-1.452.045-1.556-.08h-1.273l-1.378-.164-1.472-.26-.87-.406-1.77-.937-.718-.536-1.77-1.565-.453-.68-.87-1.488-.805-1.444-.84-1.978-.746-1.887-.615-2.047-.45-1.527-.71-.79-.966-.11-.853-.096-.836.196-.82 1.188-.287.937-.566 1.697-.563 1.58-.84 2.038-.794 1.853-1.9 2.814-1.256.996-1.65 1.134-1.56.67-1.48.607-1.963.194h-3.889l-1.985-.08-1.542-.192-1.256-.418-1.063-.418-1.15-.695-1.173-.673-.63-.497-1.19-1.208-.82-1.297-.8-1.24-.62-1.683-.61-1.58-.434-1.207-.362-1.835-.42-1.48-.825-3.198-1.5-.93-.638-4.37 1.27-.06.058-.002 3.326-.174-3.238.17z"/></g></svg>